<svg xmlns="http://www.w3.org/2000/svg" xmlns:xlink="http://www.w3.org/1999/xlink" width="30" height="30" viewBox="0 0 30 30">
  <defs>
    <rect id="rect-1" width="30" height="30" x="0" y="0"/>
    <mask id="mask-2" maskContentUnits="userSpaceOnUse" maskUnits="userSpaceOnUse">
      <rect width="30" height="30" x="0" y="0" fill="black"/>
      <use fill="white" xlink:href="#rect-1"/>
    </mask>
  </defs>
  <g>
    <use fill="none" xlink:href="#rect-1"/>
    <g mask="url(#mask-2)">
      <path fill="rgb(98,87,247)" fill-rule="evenodd" d="M10.30304628 25.71952399c-.24269484 0-.43945226.19675742-.43945226.43945226v1.87874633c0 .24269484.19675742.43945227.43945226.43945227s.43945227-.19675743.43945227-.43945227v-1.87874633c0-.24269484-.19675743-.43945226-.43945227-.43945226z"/>
      <path fill="rgb(98,87,247)" fill-rule="evenodd" d="M19.69689512 25.71952399c-.24269484 0-.43945226.19675742-.43945226.43945226v1.87874633c0 .24269484.19675742.43945227.43945226.43945227s.43945227-.19675743.43945227-.43945227v-1.87874633c0-.24269484-.19675743-.43945226-.43945227-.43945226z"/>
      <path fill="rgb(98,87,247)" fill-rule="evenodd" d="M6.74195949 16.3720813c-1.02046676-.51023337-2.93372474-.51609274-3.01470114-.51609274-.24263625 0-.43933508.19664024-.43939368.43933508-.0000586.24263625.19658165.43945227.43927649.43956946.4944131.00029296 1.92907826.07693344 2.62177222.42328042.06310535.03158197.13013647.04646475.1961715.04646475.16119108 0 .31640562-.08906232.39339766-.2429878.108574-.21708942.02056637-.48105375-.19652305-.58956917z"/>
      <path fill="rgb(98,87,247)" fill-rule="evenodd" d="M2.3181986 24.78015082c-.24269484 0-.43945227.19675743-.43945227.43945227v2.81817809c0 .24269483.19675743.43945226.43945227.43945226.24269484 0 .43945226-.19675743.43945226-.43945226v-2.8181781c0-.24263624-.19669883-.43945226-.43945226-.43945226z"/>
      <path fill="rgb(98,87,247)" fill-rule="evenodd" d="M27.19846344 22.24926758l1.77960968.88967895c.63028717.31515503 1.02186584.94873047 1.02192688 1.65338135v3.24539185c0 .2427063-.19676208.43945312-.43945313.43945312-.24269104 0-.43945312-.19674682-.43945312-.43945312v-3.24539185c0-.36965942-.20536804-.70199585-.53601074-.86730957l-1.46788788-.7338562-.51046753.4850769c-.35695648.33926392-.81527328.50894165-1.2733612.50894165-.45825959 0-.9163437-.16955566-1.27341462-.50894165l-.51052475-.48513794-.68009567.33999634c.3506813.41168213.5550003.94125366.5550003 1.50341797v3.00314331c0 .2427063-.19676208.43945313-.43945312.43945313-.24269867 0-.43945312-.19674683-.43945312-.43945313v-3.0031433c0-.56967164-.3367386-1.0864563-.85787201-1.31661988l-2.51173401-1.10934448c-.78684998 1.57858276-2.39032746 2.5807495-4.17578888 2.5807495-1.77884674 0-3.38771057-1.00439452-4.17503357-2.58111572l-2.51249314 1.1097107c-.52113342.23016357-.85786819.74694824-.85786819 1.31661987v3.00314331c0 .2427063-.19675827.43945313-.43945312.43945313-.24269486 0-.43945313-.19674683-.43945313-.43945313v-3.0031433c0-.75921632.37207031-1.4593506.97576141-1.88861085l-.44548797-.1272583c-.10945511-.03128052-.25880814-.07406616-.4086914-.147583l-1.12148286 1.12145995v4.04525757c0 .2427063-.19675827.43945313-.43945312.43945313-.24269486 0-.43945313-.19674683-.43945313-.43945313V23.9925232l-1.1136856-1.11367798c-.05918122.03012085-.12134934.05548096-.1867981.07418824l-1.8142929.51837158c-.41402436.11828613-.70323945.50167847-.70323945.93234253v3.6340332c0 .2427063-.19675827.43945313-.43945313.43945313C.19675828 28.47723389 0 28.28048706 0 28.03778076v-3.6340332c0-.82095337.55130768-1.55184937 1.34067917-1.77731323l1.81423569-.5184021c.07822418-.02236939.1328926-.0947876.1328926-.17617798v-.63467407c-.84872818-.61401368-1.40906143-1.63430787-1.40906143-2.7713623v-.71749879l-.22494125-.44992065c-.16013718-.32022095-.24474335-.67877198-.24474335-1.03677368v-.02618409c0-1.53726196 1.25067902-2.78793335 2.78794098-2.78793335h4.1430397c.03884888-.46588134.07751847-.95532226.11566544-1.4717102.14355087-1.94488525.84304428-3.58740234 2.02276993-4.74984741 1.17063904-1.15353394 2.73421097-1.76324463 4.521492-1.76324463 1.78728485 0 3.35085297.6097107 4.52161408 1.76330566 1.17972564 1.16238404 1.87921524 2.80490113 2.02276611 4.74984741.10881043 1.47409058.22224808 2.73953248.33117676 3.80999756.25581741-.63458252.68074035-1.18347168 1.21962356-1.5894165-.05296707-.17630005-.08003616-.35836792-.08003616-.544281 0-1.1487732 1.03997803-2.08340455 2.31819534-2.08340455 1.27822113 0 2.31819535.93463135 2.31819535 2.08340454 0 .18569947-.02735901.36767578-.0803299.5440979.9038086.68075562 1.48939514 1.76251221 1.48939514 2.97860718 0 .65216065-.1731491 1.29351807-.5017395 1.86135864-.12937164.93325806-.64646149 1.72851563-1.37700653 2.23153687l-.00012207.89440918c0 .01150513.00644684.02194214.01676178.0270996zm-8.38791657-.76278687l-.72468566-.32009887c-.18099213-.07992554-.29794693-.25946045-.29794693-.45730591v-1.51083374c1.41222381-.91622925 2.34849166-2.5067749 2.34849166-4.31192017v-.82400513c0-.53555297-.22769546-1.04074096-.62472534-1.38598632-.88294983-.76791382-2.88163376-2.10800171-6.34674453-2.45452881-.24087906-.0241394-.45685578.15197754-.48099518.3935852-.02414322.24151612.15205002.45684815.39357376.48098755 3.22294235.32226563 5.05323028 1.5437622 5.8574295 2.24319458.2050171.17825318.32255554.44174195.32255554.7227478v.82400513c0 2.3475647-1.90991592 4.2574768-4.25746917 4.2574768-2.34755707 0-4.257473-1.9099121-4.257473-4.2574768v-.36761474c0-.16888428.09363175-.32354737.25042725-.41384888.54943466-.31634522 1.27400208-.90240479 1.6058197-1.8977356.07675553-.2302246-.04769516-.47912597-.27796936-.55587768-.23015594-.07675171-.47911834.04769897-.55587768.27798462-.24445343.7333374-.7932396 1.17367553-1.21054459 1.41397094-.42609405.24533081-.69081878.69580078-.69081878 1.17556763v.36761475c0 1.8052063.93621063 3.3956604 2.34849166 4.31188965v1.51086425c0 .19784546-.1169548.37731934-.29794693.45730591l-.7247467.32009888c-1.4153862-.37869263-2.32229996-.88357544-2.73966217-1.15377808-.00831986-.0053711-.01300812-.01153564-.0106659-.02542114.15328217-.90609741.54714966-3.51965332.89320374-8.20678711.12761688-1.72940063.7372818-3.17782593 1.7630806-4.18856812 1.0028305-.98806762 2.35300445-1.51037597 3.90462112-1.51037597 1.55162049 0 2.90179444.52230835 3.90462113 1.51037597 1.0257988 1.0107422 1.63546753 2.45910645 1.76314163 4.18850708.34599686 4.68695069.73986053 7.30062867.89320373 8.20678711.00234223.01394654-.00234603.02011109-.01072311.02548218-.41794968.27053833-1.32486343.77514649-2.73966598 1.15371704zm7.9620018-7.77438354c0-.66415405-.64570236-1.2044983-1.43929672-1.2044983-.79359054 0-1.4392929.54034425-1.4392929 1.2044983 0 .02783203.00240325.0553894.00468826.08291626.44179535-.18496704.92642212-.2875061 1.43460464-.2875061.50824356 0 .99292755.10253906 1.43484116.28756713.00222778-.02752685.00445557-.05514526.00445557-.0829773zm-24.01489639 4.8137207c0 1.33798218 1.03411866 2.45758057 2.30524826 2.49563599.64956665.01968384 1.2642746-.21862793 1.7298584-.67037964.46582031-.45199585.72234345-1.0583191.72234345-1.70718384v-.93939209c0-.06817627.01588058-.13546753.04640579-.19650268l.22177887-.443573c.13189316-.26367188.20156097-.55889893.20156097-.85369873v-1.8243103h-3.7878456c-1.0526352 0-1.90903855.85641479-1.90903855 1.9090271v.0262146c0 .22229003.0525589.44482421.15193176.64370727l.27134705.5426941c.03052902.06097411.0464096.1283264.0464096.19650268v.82125854zm20.21175766.37734985c.1308403 1.20825196 1.1470871 2.11938477 2.36384201 2.11938477 1.16560364 0 2.146698-.83642578 2.34216309-1.96899414-.68876648-.97375488-2.22351074-1.52850342-2.9629631-1.74819946-.08519364.2118225-.23038865.462677-.47753525.70980835-.1715622.17163086-.44982529.17163086-.6214447 0-.17162324-.17153931-.17162324-.4498291 0-.62142945.32091522-.32092285.34095382-.62579345.34095382-.6286621 0-.13311768.06041336-.25909424.16418076-.3425293.10382843-.08337403.23988342-.1152649.36984253-.08660889.1058197.02331543 2.30091476.5201416 3.54872131 1.78781128.0951004-.2862854.1444931-.58618164.1444931-.88891602 0-1.57061767-1.27780914-2.84841919-2.84841156-2.84841919-1.57065963 0-2.84841156 1.27780152-2.84841156 2.84835816 0 .52218628.14595795 1.03591919.42216873 1.48574829.03409958.055542.05537034.1178894.06240082.1826477zM11.6294899 22.2529297c.64575958 1.25830078 1.94068146 2.05752563 3.3704834 2.05752563 1.43513107 0 2.72507095-.79788208 3.37036133-2.05758667l-.63954926-.2824707c-.49921799-.22042847-.82177353-.71554566-.82177353-1.2612915v-1.05444336c-.5905075.23724365-1.23474502.3680725-1.90903854.3680725-.67429734 0-1.31859207-.13082885-1.90904236-.3680725v1.05444336c0 .54574584-.32255554 1.040802-.82177353 1.2612915l-.63966751.28253174zm11.83855057-.00372315c.01031112-.00515747.01669693-.01553344.01669693-.02706909v-.89437866c-.45087815-.3104248-.82042694-.73202515-1.06757355-1.2290039l.01036835.0619812c.0602951.35656738-.09661866.71362304-.39966584.90985107-.3527336.22839355-1.01736068.60714722-1.99446869.95602417l2.00923539.88739013c.01652145.00732422.03222656.01593018.04857254.02362061l1.37683487-.68841553zm-14.73231507.32095337l-1.38825988-.39660644c-.36263657-.10357666-.36263657-.14401245-.36263657-.2418213l.00011825-.60543822c.14759827-.1022644.28833771-.2166748.41999817-.34448243.08859635-.08596801.171093-.17642212.2484398-.27017212.0706024.14318848.17882537.26831055.31869125.35882569.3522644.2281189 1.01700592.60702514 1.99458313.95602417l-1.23093415.54367065zm-3.59928894.618927L4.1350708 22.18771362c.02068329-.08248901.03175736-.16833496.03175736-.2559204v-.1853943c.27644348.09075928.56800842.1446228.8697052.1536255.03380966.0010681.06744003.00152587.10113143.00152587.33328248 0 .65865326-.05032348.96826172-.1463623v.17642212c0 .09533691.0097847.18182373.02718735.26080322l-.9966774.99667358zm20.86466599-.14987182c-.37447357.35601806-.96122742.35595703-1.33581925 0l-.4084549-.38812256c.06890488-.1291504.10675813-.27563477.10675813-.4289856v-.46762085c.30691146.09521485.63245773.14700318.9696083.14700318.33708954 0 .66269303-.05178833.96954727-.14700318l-.00005722.4675293c0 .15344238.03784943.29992676.10681534.42913818l-.40839767.38806153z"/>
      <path fill="rgb(98,87,247)" fill-rule="evenodd" d="M27.6817428 25.36081375c-.24269483 0-.43945226.19675743-.43945226.43945227v2.23751516c0 .24269483.19675743.43945226.43945227.43945226.24269484 0 .43945227-.19675743.43945227-.43945226v-2.23751516c0-.24269484-.19675743-.43945227-.43945227-.43945227z"/>
    </g>
  </g>
</svg>
