<svg xmlns="http://www.w3.org/2000/svg" width="83" height="63.508" viewBox="0 0 83 63.508">
  <g>
    <path fill="rgb(98,87,247)" fill-rule="evenodd" d="M28.50509472 55.87786219c-.67145572 0-1.21581794.54436222-1.21581794 1.21581794v5.19786484c0 .67145572.54436222 1.21581794 1.21581794 1.21581794s1.21581793-.54436222 1.21581793-1.21581794v-5.19786484c0-.67145572-.54436221-1.21581794-1.21581793-1.21581794z"/>
    <path fill="rgb(98,87,247)" fill-rule="evenodd" d="M54.49474317 55.87786219c-.67145572 0-1.21581793.54436222-1.21581793 1.21581794v5.19786484c0 .67145572.54436221 1.21581794 1.21581793 1.21581794.67145572 0 1.21581794-.54436222 1.21581794-1.21581794v-5.19786484c0-.67145572-.54436222-1.21581794-1.21581794-1.21581794z"/>
    <path fill="rgb(98,87,247)" fill-rule="evenodd" d="M18.65275458 30.0166041c-2.82329136-1.41164567-8.11663844-1.42785658-8.34067316-1.42785658-.6712936 0-1.21549372.544038-1.21565583 1.21549372-.0001621.67129361.5438759 1.21581794 1.21533161 1.21614215 1.36787624.00081055 5.33711653.2128492 7.25356982 1.17107584.17459146.08737679.36004422.12855249.54274113.12855249.44596202 0 .87538891-.24640577 1.08840022-.67226627.30038808-.60061406.05690028-1.33091537-.54371379-1.63114134z"/>
    <path fill="rgb(98,87,247)" fill-rule="evenodd" d="M6.41368279 53.27892976c-.67145572 0-1.21581794.54436222-1.21581794 1.21581794v7.79695938c0 .67145572.54436222 1.21581794 1.21581794 1.21581794s1.21581793-.54436222 1.21581793-1.21581794V54.4947477c0-.6712936-.5442001-1.21581794-1.21581793-1.21581794z"/>
    <path fill="rgb(98,87,247)" fill-rule="evenodd" d="M75.24908447 46.27679443l4.92358399 2.4614563C81.91647339 49.6102295 82.9998474 51.36312866 83 53.3126526v8.97888183c0 .67144776-.54437256 1.21582032-1.21582031 1.21582032-.67144776 0-1.21582032-.54437256-1.21582032-1.21582032V53.3126526c0-1.02276612-.56817626-1.94223023-1.48297119-2.39953613l-4.06115722-2.03042603-1.41229248 1.34210205c-.98754883.93859863-2.25558472 1.40808106-3.52294922 1.40808106-1.26785279 0-2.53521729-.46914673-3.52313233-1.40808106l-1.41244506-1.34225464-1.8815918.94070435c.97021484 1.13897705 1.53549194 2.60412597 1.53549194 4.1593933v8.30874635c0 .67144775-.54437256 1.2158203-1.21582031 1.2158203s-1.21582031-.54437255-1.21582031-1.2158203V53.9826355c0-1.57601929-.93164063-3.00582886-2.3734436-3.64257813l-6.9491272-3.06921386c-2.17694092 4.3673706-6.61322022 7.14007568-11.55300904 7.14007568-4.92147827 0-9.37268066-2.77886963-11.55093384-7.14105225l-6.9512329 3.07019043c-1.44180298.63674927-2.3734436 2.06655884-2.3734436 3.64257813v8.30874634c0 .67144775-.54434205 1.2158203-1.21582032 1.2158203-.67144776 0-1.21582031-.54437255-1.21582031-1.2158203V53.9826355c0-2.10043335 1.02938842-4.03747559 2.69961547-5.22509766l-1.23251342-.35211181c-.30282593-.08654786-.71603394-.20489502-1.13070679-.4083252l-3.1027832 3.10275269v11.191864c0 .67144776-.5443573 1.2157898-1.21580506 1.2157898-.67146301 0-1.2158203-.54434204-1.2158203-1.2157898v-11.191864L9.91362 48.01864624c-.16372681.08331299-.33572388.15350342-.51679993.20523071l-5.01954651 1.43417359c-1.14546204.32730102-1.94563293 1.38800049-1.94563293 2.57949829v10.0541687c0 .67144775-.54437256 1.2157898-1.21582032 1.2157898C.5443573 63.50750732 0 62.96316527 0 62.29171752v-10.0541687c0-2.27133179 1.52528381-4.29348755 3.70921326-4.91726685l5.01939392-1.43417358c.2164154-.06192017.36766052-.26229859.36766052-.48745728v-1.75598144c-2.34815979-1.69873047-3.89840698-4.52154541-3.89840698-7.66741944v-1.98504638L4.575531 32.74539185c-.4430542-.8859253-.67713929-1.87786866-.67713929-2.86837769v-.07244873c0-4.25308228 3.46022034-7.71331787 7.71331787-7.71331787h11.4624176c.1074524-1.28894043.21444703-2.64303589.32000733-4.0716858.39715576-5.38088988 2.33239746-9.92514037 5.59631348-13.14120483C32.22921753 1.68692017 36.55511475 0 41.49990845 0c4.94482422 0 9.27069092 1.68692017 12.50979614 4.87850952 3.26391602 3.21591187 5.19915771 7.76016236 5.596344 13.14120484.30102538 4.07833862.61486816 7.57940673.91622924 10.5409851.70776367-1.75564575 1.88339234-3.27429199 3.3742981-4.39736938-.14654541-.48779297-.22143555-.99145508-.22143555-1.50582886 0-3.1783142 2.87728882-5.76412964 6.41366577-5.76412964 3.536438 0 6.4136963 2.58581543 6.4136963 5.76412964 0 .51373291-.0756836 1.01724243-.22222901 1.50534058 2.5005188 1.88339233 4.12063598 4.87625122 4.12063598 8.2408142 0 1.80426026-.47903442 3.57873536-1.38815307 5.14971924-.35791016 2.58206177-1.7885437 4.78222657-3.8097229 6.17391968l-.0003357 2.47460938c0 .0317688.01785279.0606079.04638672.07489013zM52.042511 44.16644287l-2.00497437-.8855896c-.50076294-.22113037-.8243103-.71783447-.8243103-1.26525879v-4.17999267c3.907135-2.5348816 6.49746704-6.93533326 6.49746704-11.92959595v-2.27975464c0-1.48165893-.62994385-2.87936401-1.72839356-3.83450317-2.44281005-2.12460327-7.97253417-5.83221436-17.55932617-6.79092408-.66644287-.06677246-1.26397705.42050171-1.3307495 1.08889771-.06680299.66821289.42065429 1.26394653 1.08886718 1.33074951 8.91680908.89160156 13.98062134 4.27108765 16.2055664 6.20617676.56723023.49313354.89242554 1.22213745.89242554 1.99960327v2.27975464c0 6.49490356-5.28411865 11.77902222-11.77902221 11.77902222-6.49490357 0-11.7789917-5.28411866-11.7789917-11.77902222v-1.01705933c0-.46722412.2590332-.89517212.69284057-1.14498901 1.52011109-.87521362 3.52474976-2.49664307 4.44277954-5.25039673.21234131-.63693237-.131958-1.32556152-.76907348-1.53793335-.63674927-.2123413-1.32556153.131958-1.53790284.76904297-.67633056 2.02896118-2.1946411 3.2472229-3.34918212 3.91201782-1.17886353.67877198-1.91125489 1.92504883-1.91125489 3.2524109v1.01705932c0 4.99441528 2.59017945 9.39471435 6.49746704 11.92962646v4.17996216c0 .54745483-.32354736 1.04397583-.8243103 1.26525879l-2.00512695.88562012c-3.91589356-1.0477295-6.42501831-2.4446106-7.57974243-3.19210816-.02301026-.01489258-.03598023-.03192138-.0295105-.07034302.42410278-2.50686645 1.51379394-9.73773193 2.4711914-22.70547485.35308838-4.78466797 2.03982544-8.79199219 4.87786866-11.5883789 2.77450561-2.73364258 6.50997925-4.17868042 10.8027954-4.17868042 4.29281617 0 8.0282898 1.44503784 10.80279542 4.17868041 2.83804321 2.79638672 4.52478027 6.80355835 4.87802124 11.5881958.95724487 12.96728516 2.04693603 20.19848633 2.4711914 22.70550538.00646973.03857422-.00650024.05560302-.02966308.0704956-1.15634155.74847412-3.66546631 2.14456177-7.57974243 3.19192505zm22.02819824-21.50909424c0-1.83752441-1.78643799-3.33248901-3.98202515-3.33248901-2.19561767 0-3.98205566 1.4949646-3.98205566 3.33248901 0 .07699585.00665283.15316773.01296997.22937012 1.22229004-.51177979 2.56311035-.7954712 3.9690857-.7954712 1.40612792 0 2.74710082.28369141 3.96972655.79562379.00616456-.07617188.01229859-.15252686.01229859-.2295227zM7.62950134 35.97525024c0 3.70175171 2.86105347 6.79934693 6.3778534 6.90454102 1.79714965.05447388 3.49783325-.60482788 4.7859497-1.8546753 1.28875733-1.2505188 1.99847412-2.92803954 1.99847412-4.72323608v-2.59890747c0-.1887207.04394532-.3748169.12838746-.54373169l.61358642-1.22717285c.36489868-.72946167.5576477-1.5463562.5576477-2.36190796v-5.04727173H11.6117096c-2.91229248 0-5.28167724 2.36938477-5.28167724 5.28167725v.07244873c0 .61505127.14541626 1.2307434.42034912 1.78094482l.75073242 1.50146485c.0844574.16873169.12838745.35501098.12838745.54370117v2.27212524zm55.91920471 1.04397583c.36199952 3.342865 3.1736145 5.86364747 6.53997803 5.86364747 3.224823 0 5.93917847-2.31411744 6.47998047-5.44750977-1.90560913-2.6940918-6.15170288-4.22894287-8.19754028-4.83670044-.23568726.58602905-.63742066 1.2800293-1.32119751 1.96380615-.4746399.474823-1.24450684.474823-1.71929932 0-.474823-.4746704-.474823-1.24450683 0-1.71932983.8878479-.88787842.94329834-1.73132324.94329834-1.73925781 0-.36831665.16714478-.71685791.45422363-.94769288.28726197-.23068237.6636963-.31887817 1.02322388-.2395935.29278565.06451416 6.36587525 1.43902588 9.81814575 4.94625854.26312256-.79205322.39978028-1.62173462.39978028-2.45935058 0-4.34533692-3.53527832-7.88061524-7.88061524-7.88061524-4.3454895 0-7.88061523 3.53527832-7.88061523 7.88043213 0 1.44473267.4038086 2.86608887 1.16799927 4.11062622.09432983.153656.15319824.32614136.17263793.50527954zm-31.3737793 9.26779175c1.78659058 3.48129273 5.36920167 5.69244385 9.32501221 5.69244385 3.97052002 0 7.53936768-2.20742798 9.32467652-5.69259644l-1.7694397-.78155517c-1.38116455-.60983277-2.27355957-1.9796753-2.27355957-3.48953247V39.0984497c-1.63375854.65637207-3.4161377 1.01837158-5.28167725 1.01837158-1.86557006 0-3.6481018-.36199951-5.28167724-1.01837158v2.91732788c0 1.50985718-.89242554 2.8795166-2.27359009 3.48953247l-1.76974487.78170776zm32.75332642-.0104065c.02853394-.0142517.04620362-.04293822.04620362-.07489013v-2.47442627c-1.24743653-.8588562-2.26983643-2.02523804-2.95361328-3.40023804.00970459.05834961.01959228.1175232.02868652.1715088.16680908.98645019-.26733399 1.97433471-1.1057434 2.51724243-.97589112.63189697-2.81469727 1.67977905-5.5180359 2.6449585l5.55886841 2.45513915c.04571533.02026367.08917236.0440979.13439941.06533814l3.80923462-1.90463257zm-40.75942993.88806153l-3.84085083-1.09732056c-1.0032959-.28656005-1.0032959-.3984375-1.0032959-.66900634l.0003357-1.67507935c.40835571-.28289795.79772949-.5994873 1.1619873-.95303345.24511719-.23782348.47335816-.48812866.68734741-.74749755.19534302.39620971.49475098.74230957.88171387.99276733.97460938.631073 2.8137207 1.67944336 5.51834107 2.6449585l-3.40557862 1.50421142zm-9.95802307 1.71234131l-2.77044678-2.77044678c.05722046-.22824096.08786011-.46572876.08786011-.70809936v-.51290894c.76483154.25109863 1.57148743.40008545 2.40618897.42504883.09353637.00292969.18658447.00421143.27980041.00421143.92207337 0 1.82226563-.13925171 2.67886353-.40493775v.48809815c0 .26376342.02706909.50302124.0751953.72155761l-2.75746154 2.75747681zm57.7256012-.41467285c-1.03604126.98495483-2.65942383.98480224-3.69577027 0l-1.13006591-1.07382202c.1906433-.3572998.29534912-.76257325.29534912-1.1867981v-1.29379272c.8491516.26342773 1.7498169.40673828 2.68258667.40673828.93261718 0 1.83346557-.14331055 2.68243408-.40673828l-.0001831 1.29345703c0 .42456054.10473632.82983398.29553222 1.18728637l-1.12988281 1.07366944z"/>
    <path fill="rgb(98,87,247)" fill-rule="evenodd" d="M76.5861551 54.88543053c-.67145571 0-1.21581793.54436222-1.21581793 1.21581794v6.19045861c0 .67145572.54436222 1.21581794 1.21581794 1.21581794.67145571 0 1.21581793-.54436222 1.21581793-1.21581794v-6.1904586c0-.67145573-.54436222-1.21581795-1.21581793-1.21581795z"/>
  </g>
</svg>
