<svg xmlns="http://www.w3.org/2000/svg" xmlns:xlink="http://www.w3.org/1999/xlink" width="40" height="40" viewBox="0 0 40 40">
  <defs>
    <ellipse id="ellipse-1" cx="20" cy="20" rx="15" ry="15"/>
    <mask id="mask-2" x="0" y="0" maskContentUnits="userSpaceOnUse" maskUnits="userSpaceOnUse">
      <rect width="40" height="40" x="0" y="0" fill="white"/>
      <use fill="black" xlink:href="#ellipse-1"/>
    </mask>
  </defs>
  <g>
    <g>
      <use fill="rgb(255,255,255)" xlink:href="#ellipse-1"/>
      <use fill-opacity="0" stroke="rgb(255,255,255)" stroke-linecap="butt" stroke-linejoin="miter" stroke-opacity=".3" stroke-width="10" mask="url(#mask-2)" xlink:href="#ellipse-1"/>
    </g>
    <path fill="rgb(255,95,88)" fill-rule="evenodd" d="M20 5C11.72866821 5 5 11.72866821 5 20s6.72866821 15 15 15 15-6.72866821 15-15S28.27133179 5 20 5z"/>
    <g>
      <path fill="rgb(255,255,255)" fill-rule="evenodd" d="M21.77127075 11.08654785h-3.0083313v.50619507H17.6763916v-.57705688C17.6763916 10.45565796 18.1317749 10 18.69152832 10h3.15115356c.55975342 0 1.01513672.45565796 1.0149994 1.01568604v.57705688h-1.08641053v-.50619507z"/>
      <path fill="rgb(255,255,255)" fill-rule="evenodd" d="M25.36668396 15.89746094H15.16752625c-.27946473 0-.49946595.23840332-.47694397.51704406l.85267639 10.5435791C15.59077454 27.54667665 16.08172607 28 16.67155457 28h7.19096374c.5898285 0 1.08078003-.45332336 1.1282959-1.04205322l.8526764-10.54344178c.0226593-.27864074-.19734193-.51704406-.47680665-.51704406zm-5.09353638 10.97891235c.30006409 0 .54327393-.24320984.54327393-.5431366v-8.65585327c0-.30006408-.24334717-.54327392-.54327393-.54327392-.30006408 0-.54327392.24320984-.54327392.54327392v8.65585327c0 .29992676.24320984.5431366.54327392.5431366zm3.73397827-9.16699219l-.5101776 8.65571595c-.01689149.28866577-.25639344.51127624-.54176331.51127624-.01071167 0-.02156067-.00027466-.03240967-.00082397-.29951477-.01771546-.5280304-.27479554-.51031494-.5743103l.51004028-8.65585328c.01757813-.29951477.27383423-.5280304.57417297-.51031494.29951477.01757813.5280304.27479553.51045227.5743103zM17.63711548 26.875412c-.01139832.00068664-.02279663.00109863-.03405762.00109863-.28482056 0-.52391052-.2217865-.54162598-.50990295l-.53434753-8.65571595c-.0184021-.29951477.20942688-.5572815.50880432-.57568359.29841614-.01812744.5572815.20915222.5756836.50880432l.5342102 8.65571594c.01853943.29951477-.20928955.55714417-.508667.5756836z"/>
      <path fill="rgb(255,255,255)" fill-rule="evenodd" d="M27.24535377 14.22094727l-.3567811-1.06951887c-.09407038-.2819366-.35801683-.47213754-.6553343-.47213754H14.30084995c-.29718 0-.5612639.19020094-.65519719.47213754l-.35678109 1.06951922c-.06880184.2062684.02073656.4166564.18786621.52157601.06811524.04270922.14872746.0683898.23730469.0683898h13.10614031c.08857723 0 .16932692-.02568058.23730469-.06852726.16712965-.10491926.25666805-.31530762.18786621-.52143855v-3.5e-7z"/>
    </g>
  </g>
</svg>
