<svg xmlns="http://www.w3.org/2000/svg" xmlns:xlink="http://www.w3.org/1999/xlink" width="16" height="16" viewBox="0 0 16 16">
  <defs>
    <rect id="rect-1" width="16" height="16" x="0" y="0"/>
    <mask id="mask-2" maskContentUnits="userSpaceOnUse" maskUnits="userSpaceOnUse">
      <rect width="16" height="16" x="0" y="0" fill="black"/>
      <use fill="white" xlink:href="#rect-1"/>
    </mask>
  </defs>
  <g>
    <use fill="none" xlink:href="#rect-1"/>
    <g mask="url(#mask-2)">
      <path fill="rgb(255,255,255)" fill-rule="evenodd" d="M14.16662598 16H1.83337402C.82202148 16 0 15.17797852 0 14.16662598v-11c0-1.01135254.82202148-1.83325196 1.83337402-1.83325196h12.33325196C15.17797852 1.33337402 16 2.15527344 16 3.16662598v11C16 15.17797852 15.17797852 16 14.16662598 16zM1.83337402 2.33337402C1.37402344 2.33337402 1 2.7072754 1 3.16662598v11C1 14.62597656 1.37402344 15 1.83337402 15h12.33325196C14.62597656 15 15 14.62597656 15 14.16662598v-11c0-.45935059-.37402344-.83325196-.83337402-.83325196H1.83337402z"/>
      <path fill="rgb(255,255,255)" fill-rule="evenodd" d="M15.5 6.33337406H.5c-.27600094 0-.5-.22399906-.5-.5s.22399906-.5.5-.5h15c.27600094 0 .5.22399906.5.5s-.22399906.5-.5.5z"/>
      <path fill="rgb(255,255,255)" fill-rule="evenodd" d="M3.83337406 4c-.27600094 0-.5-.22399906-.5-.5v-3c0-.27600094.22399906-.5.5-.5s.5.22399906.5.5v3c0 .27600094-.22399906.5-.5.5z"/>
      <path fill="rgb(255,255,255)" fill-rule="evenodd" d="M12.16662594 4c-.27600094 0-.5-.22399906-.5-.5v-3c0-.27600094.22399906-.5.5-.5s.5.22399906.5.5v3c0 .27600094-.22399906.5-.5.5z"/>
    </g>
  </g>
</svg>
