<svg xmlns="http://www.w3.org/2000/svg" xmlns:xlink="http://www.w3.org/1999/xlink" width="46" height="46" viewBox="0 0 46 46">
  <defs>
    <ellipse id="ellipse-1" cx="23" cy="23" rx="18" ry="18"/>
    <mask id="mask-2" x="0" y="0" maskContentUnits="userSpaceOnUse" maskUnits="userSpaceOnUse">
      <rect width="46" height="46" x="0" y="0" fill="white"/>
      <use fill="black" xlink:href="#ellipse-1"/>
    </mask>
  </defs>
  <g>
    <g>
      <use fill="rgb(255,255,255)" xlink:href="#ellipse-1"/>
      <use fill-opacity="0" stroke="rgb(255,255,255)" stroke-linecap="butt" stroke-linejoin="miter" stroke-opacity=".3" stroke-width="10" mask="url(#mask-2)" xlink:href="#ellipse-1"/>
    </g>
    <path fill="rgb(51,153,255)" fill-rule="evenodd" d="M23 5C13.07440186 5 5 13.07440186 5 23s8.07440186 18 18 18 18-8.07440186 18-18S32.92559814 5 23 5z"/>
    <path fill="rgb(255,255,255)" fill-rule="evenodd" d="M31.4729004 16.49780273c-.00061036-.66845703-.26147462-1.29650878-.73461915-1.76855468-.97583008-.97363282-2.56225586-.97229004-3.5369873.0036621L17.13232422 24.84239198c-.32751465.3272705-.57751465.73242187-.72302246 1.17175293l-.00939942.02856445L15.5 29.99998475l3.96826172-.88842774.02954101-.00976563c.43945313-.14550781.84484864-.39526367 1.17321778-.72351074L30.741333 18.26757813c.47229004-.4729004.73217773-1.10144043.73156738-1.7697754zM20.08044433 27.2012787l9.77648925-9.81578064c.23718262-.23742676.3671875-.55200196.36694336-.88671875-.0003662-.33459473-.13098144-.64904785-.36779785-.88537598-.48852539-.48742676-1.28283691-.48669434-1.77050781.00158691l-.36584473.36730957 1.02526856 1.02526856-.88317871.88317871-1.0234375-1.0234375-.95007325.95373535 1.02160645 1.02160645-.88317871.8831787-1.0197754-1.01977538-6.6968994 6.72375488 1.77038574 1.77146912zm-2.37988282 1.02600097l-.42077636-.4210205.303833-1.33642579 1.45666504 1.45751954-1.33972168.29992675z"/>
  </g>
</svg>
