<svg xmlns="http://www.w3.org/2000/svg" width="40" height="40" viewBox="0 0 40 40">
  <g>
    <ellipse cx="20" cy="20" fill="rgb(255,255,255)" fill-opacity=".2" rx="20" ry="20"/>
    <path fill="none" stroke="rgb(255,255,255)" stroke-linecap="butt" stroke-linejoin="miter" stroke-width="1.4" d="M13.41448975 13h14.26443481c.25158691-.00047684.48239136.14006805.597229.36405182.11660767.22684479.09613038.49983978-.05282592.70685577l-5.2260437 7.36199189c-.0017395.00254058-.0036316.00492095-.0053711.00745391-.18972778.25634766-.29251098.56694031-.29299927.88594818v4.8737259c0 .29885864-.1746521.54711914-.43765258.62754058l-2.93655396 1.11960602c-.08343506.03474426-.1729126.05266571-.26315307.05282593-.17767334 0-.34805298-.07106781-.47335816-.19702148-.12515259-.12610627-.19494629-.2969513-.19384766-.474617v-6.00205995c-.00048828-.31900787-.10327148-.62960052-.29315185-.88594818-.0017395-.00253296-.0036316-.00491333-.00540161-.00745391l-5.22589112-7.36183167c-.14892578-.2071762-.16940307-.48033142-.0527954-.7071762.11499023-.22382356.34564208-.36436845.59738159-.36389161z"/>
  </g>
</svg>
