<svg xmlns="http://www.w3.org/2000/svg" width="17.683" height="15" viewBox="0 0 17.683 15">
  <g>
    <path fill="rgb(255,255,255)" fill-rule="evenodd" d="M15.13027321 8.09821375h-1.36752334c.13939096.38163281.21554484.79348542.21554484 1.22274463v5.168448c0 .17897025-.0311523.35075682-.08782736.51052455h2.26082042c.84453096 0 1.53157364-.68707721 1.53157364-1.53157364v-2.81755534c.00003453-1.40748254-1.14507113-2.5525882-2.5525882-2.5525882z"/>
    <path fill="rgb(255,255,255)" fill-rule="evenodd" d="M3.70460124 9.32099291c0-.42929374.07615387-.8411118.21554483-1.22274462H2.55262273C1.14510566 8.09824829 0 9.24335395 0 10.65087102v2.81755534C0 14.31292279.68704267 15 1.53157364 15h2.26085495c-.05667506-.1598368-.08782735-.33158884-.08782735-.51055908v-5.168448z"/>
    <path fill="rgb(255,255,255)" fill-rule="evenodd" d="M10.40462288 6.76837018H7.27827306c-1.40751707 0-2.55262273 1.14510566-2.55262273 2.55262273v5.168448c0 .28192477.22856524.51052455.51052455.51052455h7.21054619c.2819593 0 .51052454-.22856524.51052454-.51052454v-5.168448c0-1.40751708-1.14510566-2.55262274-2.55262273-2.55262274z"/>
    <path fill="rgb(255,255,255)" fill-rule="evenodd" d="M8.84144797 0C7.14872513 0 5.77160053 1.3771246 5.77160053 3.06988198c0 1.14817944.6337177 2.15095851 1.56959878 2.6774391.44390285.24970184.95567073.39240833 1.50024866.39240833.54457794 0 1.05634581-.1427065 1.50024867-.39240832.93591562-.5264806 1.56959877-1.5292942 1.56959877-2.67743911C11.91129541 1.37715913 10.53417081 0 8.84144797 0z"/>
    <path fill="rgb(255,255,255)" fill-rule="evenodd" d="M3.45085859 2.86134814c-1.2659503 0-2.29584084 1.02989054-2.29584084 2.29584083 0 1.2659503 1.02989054 2.29584084 2.29584084 2.29584084.32112415 0 .62691392-.06651808.90469425-.18608485.48027022-.20677246.87627039-.5727946 1.12130974-1.03127202.17199379-.32178035.26983684-.68887313.26983684-1.07848397 0-1.26591576-1.02989054-2.29584083-2.29584083-2.29584083z"/>
    <path fill="rgb(255,255,255)" fill-rule="evenodd" d="M14.23203736 2.86134814c-1.2659503 0-2.29584084 1.02989054-2.29584084 2.29584083 0 .38964538.09784305.75673815.26983685 1.07848397.24503935.45851197.64103951.8245341 1.12130973 1.03127202.27778033.11956677.5835701.18608485.90469426.18608485 1.26595029 0 2.29584083-1.02989054 2.29584083-2.29584084 0-1.2659503-1.02989054-2.29584083-2.29584083-2.29584083z"/>
  </g>
</svg>
