<svg xmlns="http://www.w3.org/2000/svg" width="32.756" height="27.786" viewBox="0 0 32.756 27.786">
  <g>
    <path fill="rgb(189,189,189)" fill-rule="evenodd" d="M28.02756787 15.00126484h-2.5332228c.2582101.70694293.3992788 1.4698655.3992788 2.26503233v9.5741184c0 .33152745-.05770701.64974773-.16269283.9457041h4.18798105c1.5644231 0 2.8371123-1.27275316 2.8371123-2.83711229v-5.21928602c.00006397-2.60724389-2.12114865-4.72845652-4.72845652-4.72845652z"/>
    <path fill="rgb(189,189,189)" fill-rule="evenodd" d="M6.86246449 17.26636115c0-.79523082.1410687-1.5580894.3992788-2.26503233H4.7285205C2.12121263 15.00132882 0 17.12254145 0 19.72984931v5.21928603c0 1.56435912 1.2726892 2.83711229 2.8371123 2.83711229h4.18804503c-.10498583-.29608433-.16269284-.61424063-.16269284-.94576808v-9.5741184z"/>
    <path fill="rgb(189,189,189)" fill-rule="evenodd" d="M19.27369519 12.53784066h-5.79130201c-2.60730787 0-4.7285205 2.12121263-4.7285205 4.72852049v9.5741184c0 .5222421.42339804.9457041.9457041.9457041h13.3569348c.52230607 0 .9457041-.42339803.9457041-.9457041v-9.5741184c0-2.60730786-2.12121263-4.7285205-4.7285205-4.7285205z"/>
    <path fill="rgb(189,189,189)" fill-rule="evenodd" d="M16.37804418 0c-3.13562774 0-5.68663607 2.55100833-5.68663607 5.68670005 0 2.12690656 1.1739091 3.98447106 2.90755068 4.95973241.82229297.4625518 1.77030023.72690367 2.7790854.72690367 1.00878515 0 1.95679241-.26435187 2.77908539-.72690367 1.73370554-.97526135 2.90755068-2.83288983 2.90755068-4.9597324C22.06468026 2.5510723 19.51367192 0 16.37804418 0z"/>
    <path fill="rgb(189,189,189)" fill-rule="evenodd" d="M6.39242742 5.30040853c-2.34506723 0-4.25285347 1.90778624-4.25285347 4.25285346s1.90778624 4.25285346 4.25285347 4.25285346c.59485568 0 1.1613057-.12321919 1.67587057-.34470664.88966048-.38302872 1.62321772-1.06105416 2.07713266-1.91034531.31860414-.59607124.49985023-1.27607996.49985023-1.99780151 0-2.34500325-1.90778624-4.25285346-4.25285346-4.25285346z"/>
    <path fill="rgb(189,189,189)" fill-rule="evenodd" d="M26.36366095 5.30040853c-2.34506723 0-4.25285347 1.90778624-4.25285347 4.25285346 0 .72178553.1812461 1.40179424.49985023 1.9978015.45391494.84935514 1.18747218 1.52738058 2.07713266 1.91034532.51456488.22148745 1.0810149.34470664 1.67587058.34470664 2.34506722 0 4.25285346-1.90778624 4.25285346-4.25285346s-1.90778624-4.25285346-4.25285346-4.25285346z"/>
  </g>
</svg>
