<svg xmlns="http://www.w3.org/2000/svg" width="9" height="12.786" viewBox="0 0 9 12.786">
  <g>
    <path fill="rgb(255,255,255)" fill-rule="evenodd" d="M6.2090945 6.78624763h-3.418189C1.25199924 6.78624763 0 7.62091378 0 8.6468513v3.7672756c0 .20549462.2499014.37212073.5581811.37212073h7.8836378c.3082797 0 .5581811-.16660094.5581811-.37212073V8.6468513c0-1.02593752-1.25199923-1.86060367-2.7909055-1.86060367z"/>
    <path fill="rgb(255,255,255)" fill-rule="evenodd" d="M4.5 0C2.968372 0 1.72230707 1.24606493 1.72230707 2.77772418c0 1.03890827.57340737 1.9462538 1.42022153 2.42262973.40165703.22593794.86472044.35506319 1.3574714.35506319.49275096 0 .95581437-.12912525 1.3574714-.3550632.8468454-.47637592 1.42022153-1.3837527 1.42022153-2.42262972C7.27769293 1.24609618 6.03162799 0 4.5 0z"/>
  </g>
</svg>
