<svg xmlns="http://www.w3.org/2000/svg" width="19.709" height="28" viewBox="0 0 19.709 28">
  <g>
    <path fill="rgb(255,255,255)" fill-rule="evenodd" d="M13.59700288 14.86088328H6.1116722C2.741694 14.86088328 0 16.68867928 0 18.93533141v8.24977896C0 27.63511335.54724728 28 1.22233444 28h17.2640062c.67508716 0 1.22233444-.36483152 1.22233444-.81488963v-8.24977896c0-2.24665213-2.741694-4.07444813-6.1116722-4.07444813z"/>
    <path fill="rgb(255,255,255)" fill-rule="evenodd" d="M9.85433754 0c-3.35403983 0-6.0827386 2.72869877-6.0827386 6.08280703 0 2.27505619 1.25567773 4.2620093 3.11007607 5.30520246.87956977.49477083 1.89361046.77753613 2.97266253.77753613s2.09309275-.2827653 2.97266253-.77753613c1.85446677-1.04319315 3.11007606-3.0302147 3.11007606-5.30520246C15.93707613 2.7287672 13.20837736 0 9.85433753 0z"/>
  </g>
</svg>
