<svg xmlns="http://www.w3.org/2000/svg" width="14.63" height="14.357" viewBox="0 0 14.63 14.357">
  <g>
    <path fill="rgb(51,153,255)" fill-rule="evenodd" d="M10.86709595 7.68488686L9.51370239 9.69776528c-.1772766.52209473-.47869873 1.01513672-.90426635 1.4328003L6.4184265 13.2755851c-1.43023681 1.40386962-3.81207275 1.47924804-5.31915283 0-1.46569824-1.43859864-1.46569824-3.7767334 0-5.21533204L3.2902832 5.90980141c.4196167-.41186523.91607666-.713562 1.45980835-.88757324l.73287964-.04638672 1.64889527.06384278.01776123-.01745606c.54373169.17401123 1.04016113.47570801 1.45980835.88757324.42550659.41766358.72695922.9107666.90426635 1.4328003l1.35339356.34228515zm-8.29025269 4.1404419c.64422608.63232422 1.70211792.64971924 2.3640747 0l2.19097901-2.14501953-1.19384765-1.14855957-1.18795777-1.15435791-2.17324829 2.12756347c-.65011597.63812256-.65011597 1.68231201 0 2.32037354z"/>
    <path fill="rgb(114,182,251)" fill-rule="evenodd" d="M13.16445216 1.4444336C11.69874124.00582421 9.3169192 0 7.8453022 1.4444336L5.65431344 3.5894414c-.4255164.41764844-.72694938.91071094-.9042711 1.4328125-.26006255.76573438-.2600347 1.5894375.00002787 2.35517188.17729385.52204688.47872683 1.0151914.90424323 1.43283984.4137321.40608204.91017717.7076836 1.4598327.88752344l.01771824-.01739062c.65014247-.6381211.65011461-1.68226953 0-2.32036328-.65011461-.63809375-.65011461-1.68226954 0-2.32036329l2.19098877-2.1450078c.31917908-.31327735.73288331-.47567188 1.18207975-.47567188.0117843-.0115664.1122434-.00579688.13592343.00579687.31915123-.00002734.73873368.1681914 1.04607275.469875.65011461.63809375.65014247 1.68224219 0 2.32036328l-2.1732148 2.1275625c.26006255.76573438.26006255 1.58946485 0 2.35519922.53778764-.1798125 1.0461006-.48146875 1.45980483-.88755078l2.19098877-2.14500781c1.46571091-1.43863672 1.4656552-3.7821875-.00005572-5.22079688z"/>
  </g>
</svg>
