<svg xmlns="http://www.w3.org/2000/svg" width="30" height="30" viewBox="0 0 30 30">
  <g>
    <path fill="rgb(88,77,246)" fill-rule="evenodd" d="M27.09677505 16.22418213v-9.4887085C28.73564148 6.49935913 30 5.08984375 30 3.38708496 30 1.51983643 28.48064423 0 26.6129036 0c-1.86774064 0-3.38709641 1.51983643-3.38709641 3.38708496H0v19.3548584h14.54080582C14.79241943 26.78515625 18.1529007 30 22.25806427 30 26.52677155 30 30 26.52676392 30 22.25805664c0-2.43823242-1.135643-4.6137085-2.90322495-6.03387451zM26.6129036.96774292c1.33403397 0 2.41935349 1.08532715 2.41935349 2.41934204 0 1.33404541-1.08531952 2.41937256-2.41935349 2.41937256-1.33403015 0-2.41935348-1.08532715-2.41935348-2.41937256 0-1.3340149 1.08532333-2.41934204 2.41935348-2.41934204zm-3.24435424 3.38708496H.96774292v17.41934204h13.57306671c.0203209-.32806396.0566101-.65176391.11661148-.96774292h-1.10903168V15h2.90322495v2.15466309c1.41967773-1.6137085 3.49354553-2.6385498 5.80644989-2.6385498 1.41096878 0 2.730484.38565063 3.87097168 1.04806518V6.7359619c-.57242203-.08273315-1.09790802-.30773925-1.54064941-.63967895l-2.95983887 2.95935058c.09096908.18920899.14564514.39822388.14564514.62176514 0 .80032349-.6512909 1.45162964-1.45161057 1.45162964-.80032348 0-1.45161438-.65130615-1.45161438-1.45162964 0-.22354126.05467606-.43255615.14516068-.62225342l-.97499847-.9750061c-.18919373.0909729-.39822388.1456604-.62177277.1456604s-.43258286-.0546875-.62226105-.14517212l-2.42661285 2.42660523c.09096908.18920898.14564514.3982544.14564514.62179565 0 .80032349-.6512909 1.45159912-1.45161057 1.45159912-.80032348 0-1.45161438-.65127563-1.45161438-1.45159912s.6512909-1.45162964 1.45161438-1.45162964c.2235489 0 .43257905.0546875.62225724.14517212l2.42661285-2.42660522c-.09096908-.18920899-.14564514-.39822388-.14564514-.62179566 0-.80032348.6512909-1.45159912 1.45161438-1.45159912.80032349 0 1.45161056.65127564 1.45161056 1.45159912 0 .22357178-.05467605.43258667-.14516067.62228394l.97499847.97497558c.18919373-.09094238.3982277-.14562988.62177658-.14562988.22354508 0 .43258286.0546875.62225724.14562988l2.9593544-2.95935058c-.23612595-.31549073-.42000199-.67111206-.53564453-1.05725098zm-5.94919586 1.93548584c-.26661301 0-.48387146.21676636-.48387146.4838562 0 .26712036.21725845.48388672.48387146.48388672.266613 0 .48387146-.21676636.48387146-.48388672 0-.26708984-.21725846-.4838562-.48387146-.4838562zm2.90322875 2.90322876c.26661301 0 .48387146.21676636.48387146.4838562 0 .26712036-.21725845.48388672-.48387146.48388672-.266613 0-.48387146-.21676636-.48387146-.48388672 0-.26708984.21725846-.4838562.48387146-.4838562zm-6.7741928 1.93548584c0 .26712036-.21725846.48388672-.48387147.48388672-.266613 0-.48387146-.21676636-.48387146-.48388672 0-.26708984.21725846-.4838562.48387146-.4838562.26661301 0 .48387146.21676636.48387146.4838562zm8.22580337 6.31500244v-1.93548584c-3.50951385.2496643-6.29032135 3.17758179-6.29032135 6.74951172 0 1.06018066.25161362 2.06082153.68806458 2.95501709l1.6785469-.96920776c-.27435303-.606781-.43112945-1.27789307-.43112945-1.98580933 0-2.5045166 1.91322708-4.57015991 4.35483932-4.81402588zm4.89145279 6.7998352l1.6785469.96920777c.43645478-.89419556.68806458-1.89483643.68806458-2.95501709 0-3.57192993-2.78080368-6.49984741-6.29032135-6.74951172v1.93548584c2.44161224.24337769 4.35483932 2.30950928 4.35483932 4.81402588 0 .70791626-.15677642 1.37902832-.43112945 1.98580933zM15.48387146 18.518219c-.23177338.4180603-.42338943.85983277-.57532501 1.32049561h-.39241791v-3.87097168h.96774292v2.55047607zm2.90322495 3.73983765c0 2.13433838 1.73661422 3.87097168 3.87096786 3.87097168 2.13435364 0 3.87096787-1.7366333 3.87096787-3.87097168 0-2.1343689-1.73661423-3.87097168-3.87096787-3.87097168-2.13435364 0-3.87096786 1.73660278-3.87096786 3.87097168zm3.87096786 6.77420044c-2.32935715 0-4.38774109-1.18209839-5.60709763-2.97824097l1.68532181-.97305298c.87967682 1.2183838 2.30758286 2.01580811 3.92177582 2.01580811s3.04209518-.79742432 3.921772-2.0158081l1.68532181.97305297c-1.21935272 1.79614258-3.27774048 2.97824097-5.60709381 2.97824097z"/>
    <path fill="rgb(88,77,246)" fill-rule="evenodd" d="M19.35483932 22.25805664c0-1.60113525 1.30209733-2.90322876 2.90322495-2.90322876 1.60113144 0 2.90322876 1.3020935 2.90322876 2.90322876 0 1.60113525-1.30209732 2.90322876-2.90322876 2.90322876-1.60112762 0-2.90322495-1.3020935-2.90322495-2.90322876zm.96774292 0c0 1.06741333.86806489 1.93548584 1.93548203 1.93548584 1.06742096 0 1.93548584-.8680725 1.93548584-1.93548584 0-1.06741333-.86806488-1.93548584-1.93548584-1.93548584-1.06741714 0-1.93548203.86807251-1.93548203 1.93548584z"/>
    <path fill="rgb(88,77,246)" fill-rule="evenodd" d="M1.93548387 5.32258065h.96774194v.96774193h-.96774194v-.96774193z"/>
    <path fill="rgb(88,77,246)" fill-rule="evenodd" d="M3.87096774 5.32258065h6.77419355v.96774193H3.87096774v-.96774193z"/>
    <path fill="rgb(88,77,246)" fill-rule="evenodd" d="M1.93548387 7.25806452h.96774194v.96774193h-.96774194v-.96774193z"/>
    <path fill="rgb(88,77,246)" fill-rule="evenodd" d="M3.87096774 7.25806452h6.77419355v.96774193H3.87096774v-.96774193z"/>
    <path fill="rgb(88,77,246)" fill-rule="evenodd" d="M1.93548387 9.19354839h.96774194v.96774193h-.96774194V9.1935484z"/>
    <path fill="rgb(88,77,246)" fill-rule="evenodd" d="M3.87096774 9.19354839h6.77419355v.96774193H3.87096774V9.1935484z"/>
    <path fill="rgb(88,77,246)" fill-rule="evenodd" d="M1.93548387 11.12903226h.96774194v.96774193h-.96774194v-.96774193z"/>
    <path fill="rgb(88,77,246)" fill-rule="evenodd" d="M3.87096774 11.12903226h6.77419355v.96774193H3.87096774v-.96774193z"/>
    <path fill="rgb(88,77,246)" fill-rule="evenodd" d="M4.83870697 20.80645752H1.93548203v-4.8387146h2.90322494v4.8387146zm-.9677391-3.87097168h-.96774292v2.90322876h.96774291v-2.90322876z"/>
    <path fill="rgb(88,77,246)" fill-rule="evenodd" d="M8.70967484 20.80645752H5.80644989v-3.87097168h2.90322495v3.87097168zm-.96773911-2.90322876h-.96774292v1.93548584h.96774292v-1.93548584z"/>
    <path fill="rgb(88,77,246)" fill-rule="evenodd" d="M12.5806427 20.80645752H9.67741776v-7.74194336h2.90322494v7.74194336zm-.9677391-6.77420044h-.96774292v5.80645752h.96774291v-5.80645752z"/>
  </g>
</svg>
