<svg xmlns="http://www.w3.org/2000/svg" xmlns:xlink="http://www.w3.org/1999/xlink" width="30" height="30" viewBox="0 0 30 30">
  <defs>
    <rect id="rect-1" width="30" height="30" x="0" y="0"/>
    <mask id="mask-2" maskContentUnits="userSpaceOnUse" maskUnits="userSpaceOnUse">
      <rect width="30" height="30" x="0" y="0" fill="black"/>
      <use fill="white" xlink:href="#rect-1"/>
    </mask>
  </defs>
  <g>
    <use fill="none" xlink:href="#rect-1"/>
    <g mask="url(#mask-2)">
      <path fill="rgb(88,77,246)" fill-rule="evenodd" d="M3.28125 12.1875c.00087185-.776289.629961-1.40537815 1.40625-1.40625h5.15625v-.9375H4.6875c-1.29381501.0014531-2.3422969 1.04993499-2.34375 2.34375V15h.9375v-2.8125z"/>
      <path fill="rgb(88,77,246)" fill-rule="evenodd" d="M12.65625 6.796875c0-.90609741.7345314-1.640625 1.640625-1.640625.90566254.0010376 1.63959122.73495483 1.640625 1.640625 0 .90609741-.7345314 1.640625-1.640625 1.640625s-1.640625-.73452759-1.640625-1.640625zm.9375 0c0 .38833618.31480026.703125.703125.703125.38815308-.00042725.70270538-.31497192.703125-.703125 0-.38833618-.31480026-.703125-.703125-.703125s-.703125.31478882-.703125.703125z"/>
      <path fill="rgb(88,77,246)" fill-rule="evenodd" d="M18.67072296.9375H28.59375c.25888443 0 .46875.20986938.46875.46875V4.6875c.00000381.12432861-.04937744.2435608-.13728333.33145142l-.06586074.06588745C28.14879608 5.79891967 27.23943329 6.282135 26.25 6.47143555V13.125c-.00086975.77627563-.6299591 1.40536499-1.40625 1.40625h-6.39257813l-2.68236541 2.23510742c-.13972855.11642456-.33419037.14151001-.49888993.06436157-.16470336-.07714843-.26991272-.24258422-.26991653-.42446899v-1.875h-2.8125c-.7762909-.00088501-1.40537643-.62997437-1.40625-1.40625V4.6875c.00090408-.77627563.62997437-1.40533447 1.40625-1.40625h3.48456955l.58693314-.97821045C16.76933289 1.4579773 17.6835327.94033813 18.67072296.9375zM23.01334 4.93511963c1.5980339 1.06533813 3.7209549.88116455 5.11166-.44345093V1.875h-9.45427704c-.65813064.00189209-1.2675972.34698486-1.60781097.91036987l-.29748154.49588013h3.66539002l.80021667-.80020142.66292953.66308594-.9375.9375-2.33537292 2.33544922c-.14170074.14169312-.21494293.33792114-.20075607.53781128.01418686.19989014.11440658.38381958.27470398.50408935.27575302.20489502.65986251.17752076.90374756-.06445312l2.56974792-2.56970215c.15799713-.15802002.4055748-.18252563.59150314-.05859375l.25329972.16888428zm2.29916 6.84527588l-2.08370972-1.38916016c-.13996124-.09332275-.31921386-.1045227-.46968841-.02929687l-2.56916046 1.28463745-3.99240113-2.6616211c-.1507721-.10043335-.34591293-.10501098-.50121307-.01171875L11.71875 11.35955811V4.6875c.00028992-.25875854.20998764-.46844482.46875-.46875h7.30587769l-1.53515625 1.53515625c-.62789536.63748169-.62402344 1.66210938.0086708 2.29483032.63269043.63272095 1.65730667.63665772 2.29482651.00878906l2.2984581-2.29852294c.81413269.52542114 1.76273727.80444335 2.73169708.80349731.00691605 0 .01371384-.00045776.02062607-.0005188v5.2184143zM24.84375 13.59375c.25876236-.00027466.46846008-.20999146.46875-.46875v-.2178955l-2.3774414-1.58489991-2.56916047 1.28460693c-.15047455.07522583-.32972717.06402588-.46968841-.02929687l-3.97195053-2.6479187-4.20550919 2.5232849V13.125c.00028992.25875854.20998764.46847534.46875.46875h3.28125c.25888443 0 .46875.20986938.46875.46875v1.34292603l2.04369354-1.70303345c.08423233-.07019043.19041062-.10864258.30005646-.10864258h6.5625z"/>
      <path fill="rgb(88,77,246)" fill-rule="evenodd" d="M19.21875 15.9375h8.4375c.77627563.00091553 1.40534592.62997437 1.40625 1.40625v5.625c-.00090408.77627563-.62997437 1.40533447-1.40625 1.40625h-8.4375c-.77627563-.00091553-1.40534592-.62997437-1.40625-1.40625V22.5h-1.40625c-.18959808 0-.36052704-.11419678-.4330864-.28936768-.07255554-.1751709-.03244781-.37677002.10161973-.51083374L17.8125 19.96206665V17.34375c.00090408-.77627563.62997437-1.40533447 1.40625-1.40625zm8.4375 7.5c.25876617-.00030518.46846008-.20999146.46875-.46875v-5.625c-.00028992-.25875854-.20998383-.46844482-.46875-.46875h-8.4375c-.25876236.00030518-.46846008.20999146-.46875.46875v2.8125c.00000763.12432861-.04937744.2435608-.13728333.33145142L17.53787231 21.5625H18.28125c.25888443 0 .46875.20986938.46875.46875v.9375c.00028992.25875854.20998764.46844482.46875.46875h8.4375z"/>
      <path fill="rgb(88,77,246)" fill-rule="evenodd" d="M19.6875 17.8125h4.6875v.9375h-4.6875v-.9375z"/>
      <path fill="rgb(88,77,246)" fill-rule="evenodd" d="M25.3125 17.8125h1.875v.9375h-1.875v-.9375z"/>
      <path fill="rgb(88,77,246)" fill-rule="evenodd" d="M19.6875 21.5625h7.5V22.5h-7.5v-.9375z"/>
      <path fill="rgb(88,77,246)" fill-rule="evenodd" d="M19.6875 19.6875h7.5v.9375h-7.5v-.9375z"/>
      <path fill="rgb(88,77,246)" fill-rule="evenodd" d="M4.21875 11.71875h.9375v.9375h-.9375v-.9375z"/>
      <path fill="rgb(88,77,246)" fill-rule="evenodd" d="M6.09375 11.71875h.9375v.9375h-.9375v-.9375z"/>
      <path fill="rgb(88,77,246)" fill-rule="evenodd" d="M7.96875 11.71875h.9375v.9375h-.9375v-.9375z"/>
      <path fill="rgb(88,77,246)" fill-rule="evenodd" d="M4.21875 13.59375h5.625v.9375h-5.625v-.9375z"/>
      <path fill="rgb(88,77,246)" fill-rule="evenodd" d="M10.78125 24.375h-8.4375c-.77627563-.00091553-1.40534592-.62997437-1.40625-1.40625v-5.625c.00090408-.77627563.62997437-1.40533447 1.40625-1.40625h8.4375c.77627563.00091553 1.40534592.62997437 1.40625 1.40625v1.21206665l1.73771667 1.73773193c.13406754.13406372.17417527.33566285.10161591.51083374-.07255554.1751709-.2434845.28936768-.43308258.28936768H12.1875v1.875c-.00090408.77627563-.62997437 1.40533447-1.40625 1.40625zm-8.4375-7.5c-.25876236.00030518-.46846008.20999146-.46875.46875v5.625c.00028992.25875854.20998764.46844482.46875.46875h8.4375c.25876236-.00030518.46846008-.20999146.46875-.46875V20.625c0-.25888062.20986557-.46875.46875-.46875h.74337769l-1.07484436-1.07479858c-.08790589-.08789063-.13728714-.2071228-.13728333-.33145142v-1.40625c-.00028992-.25875854-.20998764-.46844482-.46875-.46875h-8.4375z"/>
      <path fill="rgb(88,77,246)" fill-rule="evenodd" d="M2.8125 17.8125H3.75v.9375h-.9375v-.9375z"/>
      <path fill="rgb(88,77,246)" fill-rule="evenodd" d="M2.8125 19.6875H3.75v.9375h-.9375v-.9375z"/>
      <path fill="rgb(88,77,246)" fill-rule="evenodd" d="M2.8125 21.5625H3.75V22.5h-.9375v-.9375z"/>
      <path fill="rgb(88,77,246)" fill-rule="evenodd" d="M4.6875 17.8125h5.625v.9375h-5.625v-.9375z"/>
      <path fill="rgb(88,77,246)" fill-rule="evenodd" d="M4.6875 19.6875h5.625v.9375h-5.625v-.9375z"/>
      <path fill="rgb(88,77,246)" fill-rule="evenodd" d="M4.6875 21.5625h5.625V22.5h-5.625v-.9375z"/>
      <path fill="rgb(88,77,246)" fill-rule="evenodd" d="M16.60037231 25.3125H24.84375c.25888443 0 .46875.20986938.46875.46875v1.40625c-.00115967 1.0350647-.83995056 1.87384033-1.875 1.875H2.8125c-1.03505325-.00115967-1.87383652-.8399353-1.875-1.875v-1.40625c0-.25888062.20986557-.46875.46875-.46875h8.24337769c.54906463-.00149536 1.07591247.21673584 1.46308898.60604858.2117386.21292115.4998703.3322754.80015564.33145142h2.42425538c.30028533.00082397.58841705-.11853027.80015564-.33145142.3871765-.38931274.91402435-.60754394 1.46308898-.60604858zM23.4375 28.125c.51751328-.00061035.93688583-.41998291.9375-.9375V26.25h-7.77462769c-.30028533-.00082397-.58841705.11853027-.80015564.33145142-.3871765.38931274-.91402435.60754394-1.46308898.60604858H11.9128723c-.54906463.00149536-1.07591247-.21673584-1.46308898-.60604858-.2117386-.21292115-.4998703-.3322754-.80015564-.33145142H1.875v.9375c.00061417.51751709.41998672.93688965.9375.9375h20.625z"/>
    </g>
  </g>
</svg>
