<svg xmlns="http://www.w3.org/2000/svg" xmlns:xlink="http://www.w3.org/1999/xlink" width="35" height="34" viewBox="0 0 35 34">
  <defs>
    <path id="path-1" fill-rule="evenodd" d="M3 0h29c1.65574507 0 3 1.34425493 3 3v28c0 1.65574507-1.34425493 3-3 3H3c-1.65574507 0-3-1.34425493-3-3V3c0-1.65574507 1.34425493-3 3-3z"/>
    <mask id="mask-2" x="0" y="0" maskContentUnits="userSpaceOnUse" maskUnits="userSpaceOnUse">
      <rect width="35" height="34" x="0" y="0" fill="black"/>
      <use fill="white" xlink:href="#path-1"/>
    </mask>
  </defs>
  <g>
    <g>
      <use fill="rgb(255,255,255)" xlink:href="#path-1"/>
      <use fill-opacity="0" stroke="rgb(130,130,130)" stroke-linecap="butt" stroke-linejoin="miter" stroke-width="2" mask="url(#mask-2)" xlink:href="#path-1"/>
    </g>
    <path fill="rgb(130,130,130)" fill-rule="evenodd" d="M25.24690706 10.43463985c-.08768725-.70878441-.44609464-1.34083789-1.00930634-1.77982164-1.16158705-.90542678-2.84374026-.697443-3.75031648.46442354l-9.36132688 12.03163398c-.30470252.38969299-.51706516.85187929-.61416724 1.3367175l-.00624635.03151369-.43904556 4.3136696 4.0924643-1.45881387.03005561-.01420569c.44706648-.21153119.84445619-.52915784 1.14993154-.92000648l9.36259816-12.03311218c.43926618-.56297734.63302219-1.26334942.54535924-1.97199845zm-10.68748648 12.833857L23.6488334 11.5864026c.22060659-.28266896.3175137-.63318141.2736665-.98810356-.04395163-.35477097-.22340421-.67122835-.5053113-.89101376-.58151621-.45327803-1.42375156-.34908237-1.87732623.23220892l-.3401377.43715075 1.22074335.95375357-.82156844 1.05156363-1.21855919-.95205394-.8833293 1.13509125 1.2163826.9503534-.8215703 1.0515485-1.21420415-.94863771-6.2262587 8.00216758 2.10806005 1.64806564zm-2.39015218 1.39789176l-.50103062-.39168941.14818712-1.45677377 1.73449592 1.35596442-1.38165242.49249876z"/>
  </g>
</svg>
