<svg xmlns="http://www.w3.org/2000/svg" width="40" height="40" viewBox="0 0 40 40">
  <g>
    <ellipse cx="20" cy="20" fill="rgb(255,95,88)" fill-opacity=".2" rx="20" ry="20"/>
    <g>
      <path fill="rgb(255,95,88)" fill-rule="evenodd" d="M26.84990635 24.43341827h-.7611084v-6.08880615c0-3.35720825-2.73159027-6.08879852-6.08880234-6.08879852-3.35720825 0-6.08879852 2.73159027-6.08879852 6.08879852v6.08880615h-.7611084c-.42089462 0-.7611084.34020996-.7611084.7611084 0 .42089081.34021378.7611084.7611084.7611084h3.80550766C16.95559635 27.63459777 18.32100239 29 19.9999956 29c1.67900086 0 3.04440308-1.36540222 3.04440308-3.04440308h3.80550766c.42089462 0 .7611084-.34020996.7611084-.7611084 0-.4208908-.3402443-.76107025-.7611084-.76107025zm-11.41649247-6.08880615v6.08880615h9.13316727v-6.08880615c0-2.51846313-2.04811859-4.56658172-4.56658172-4.56658172-2.51846314 0-4.56658555 2.04811859-4.56658555 4.56658172zm4.56658555 9.13320923c-.83949662 0-1.52218247-.682724-1.52218247-1.52218628h3.04439926c-.00003052.83946228-.68271637 1.52218628-1.5222168 1.52218628z"/>
      <ellipse cx="20" cy="12.674" fill="rgb(255,95,88)" rx="1.674" ry="1.674"/>
    </g>
  </g>
</svg>
