<svg xmlns="http://www.w3.org/2000/svg" width="60" height="60" viewBox="0 0 60 60">
  <g>
    <path fill="rgb(255,255,255)" fill-rule="evenodd" d="M37.90002441 18.63354492h1.39997864c1.54698181 0 2.79995728 1.25292969 2.80001831 2.79992676v19.59997559c0 1.5470581-1.2530365 2.80004882-2.8000183 2.80004882H19.69999694c-1.54704285 0-2.80001831-1.25305175-2.80001831-2.80004882l.0140419-19.59991456c0-1.5470581 1.23900223-2.79998779 2.7859764-2.79998779h1.39997865V15.8334961h2.8000183v2.80004883H35.1000061V15.8334961h2.80001831v2.80004883zM19.69999695 41.0335083h19.6000061V25.6334839h-19.6000061V41.0335083z"/>
    <path fill="rgb(91,227,110)" fill-rule="evenodd" d="M30 0c16.55745073 0 30 13.44254927 30 30S46.55745073 60 30 60 0 46.55745073 0 30 13.44254927 0 30 0z"/>
    <g>
      <path fill="rgb(255,255,255)" fill-rule="evenodd" d="M27.67723846 22.36431885h-1.55274581c-.26099396 0-.47257233-.21240235-.47257233-.47442627v-2.71099854c0-.26202392.21157837-.47442627.47257233-.47442627h1.55274581v-1.55877685c0-.26202393.21157837-.47442627.47257233-.47442627h2.70042038c.26099777 0 .47257614.21240234.47257614.47442627v1.55877685h1.552742c.26099396 0 .47257233.21240235.47257233.47442627v2.71099854c0 .26202392-.21157837.47442627-.47257232.47442627h-1.552742v1.55877685c0 .26202393-.21157838.47442627-.47257615.47442627H28.1498108c-.26099396 0-.47257233-.21240234-.47257233-.47442627v-1.55877685zm.47256852-2.71099854h-1.552742v1.762146h1.552742c.26099777 0 .47257614.21240234.47257614.47442627v1.55883789h1.7552719v-1.5588379c0-.26202392.21157838-.47442626.47257615-.47442626h1.552742v-1.762146h-1.552742c-.26099777 0-.47257614-.21240234-.47257614-.47436523v-1.5588379h-1.75527191v1.5588379c0 .26196289-.21157837.47436523-.47257614.47436523z"/>
      <path fill="rgb(255,255,255)" fill-rule="evenodd" d="M28.20057297 28.95410156c0 .26202393-.21157837.47442627-.47257233.47442627h-2.7004242c-.26099395 0-.47257232-.21240234-.47257232-.47442627v-2.7109375c0-.26202392.21157837-.47442627.47257233-.47442627h2.7004242c.26099395 0 .47257232.21240235.47257232.47442627v2.7109375zm-.94514466-2.23651123H25.5001526v1.762146h1.75527572v-1.762146z"/>
      <path fill="rgb(255,255,255)" fill-rule="evenodd" d="M30.79973602 28.95410156v-2.7109375c0-.26202392.21157837-.47442627.47257233-.47442627h2.7004242c.26099395 0 .47257232.21240235.47257232.47442627v2.7109375c0 .26202393-.21157837.47442627-.47257233.47442627h-2.70042419c-.26099396 0-.47257233-.21240234-.47257233-.47442627zm2.7004242-2.23651123h-1.75527573v1.762146h1.75527573v-1.762146z"/>
      <path fill="rgb(255,255,255)" fill-rule="evenodd" d="M37.73630524 21.46777344h7.2911377c.26099395 0 .47257232.21240234.47257232.47442627v21.58337402c0 .26202393-.21157837.47442627-.47257233.47442627H13.9725914c-.26099396 0-.47257233-.21240234-.47257233-.47442627V21.94219971c0-.26202393.21157837-.47442627.47257233-.47442627h7.29114151v-9.11834717c0-.26202393.21157837-.47442627.47257233-.47442627H37.2637329c.26099396 0 .47257233.21240234.47257233.47442627v9.11834717zM22.20888138 43.05114746V12.82385254h14.5822792v30.22729492h-3.0973854V32.73376465c0-.26202393-.21157837-.47442627-.47257233-.47442627h-7.44236374c-.26099396 0-.47257233.21240234-.47257233.47442627v10.31738281h-3.0973854zm-.94514847-20.63452148h-6.81856537v20.63452148h6.81856537V22.41662598zm16.47257233 20.63452148h6.81856537V22.41662598h-6.81856537v20.63452148zm-8.7088585-9.84295654h-2.7760353v9.84301758h2.7760353v-9.84301758zm.94514847 9.84301758v-9.84301758h2.77603531v9.84301758h-2.7760353z"/>
      <path fill="rgb(255,255,255)" fill-rule="evenodd" d="M42.4958191 29.42852783h-2.7004242c-.26099396 0-.47257233-.21240234-.47257233-.47442627v-2.7109375c0-.26202392.21157837-.47442627.47257233-.47442627h2.7004242c.26099395 0 .47257232.21240235.47257232.47442627v2.7109375c0 .26202393-.21157837.47442627-.47257233.47442627zm-.47257996-2.7109375h-1.75527192v1.762146h1.75527192v-1.762146z"/>
      <path fill="rgb(255,255,255)" fill-rule="evenodd" d="M42.4958191 35.30914307h-2.7004242c-.26099396 0-.47257233-.21240235-.47257233-.47442627v-2.7109375c0-.26202393.21157837-.47442627.47257233-.47442627h2.7004242c.26099395 0 .47257232.21240234.47257232.47442627v2.7109375c0 .26202392-.21157837.47442627-.47257233.47442627zm-.47257996-2.7109375h-1.75527192v1.762146h1.75527192v-1.762146z"/>
      <path fill="rgb(255,255,255)" fill-rule="evenodd" d="M42.4958191 41.19006348h-2.7004242c-.26099396 0-.47257233-.21240235-.47257233-.47442627v-2.7109375c0-.26202393.21157837-.47442627.47257233-.47442627h2.7004242c.26099395 0 .47257232.21240234.47257232.47442627v2.7109375c0 .26202392-.21157837.47442627-.47257233.47442627zm-.47257996-2.7109375h-1.75527192v1.762146h1.75527192v-1.762146z"/>
      <path fill="rgb(255,255,255)" fill-rule="evenodd" d="M16.50422287 25.7687378h2.7004242c.26099395 0 .47257232.21240234.47257232.47442626v2.7109375c0 .26202393-.21157837.47442627-.47257233.47442627h-2.70042419c-.26099396 0-.47257233-.21240234-.47257233-.47442627v-2.7109375c0-.26202392.21157837-.47442627.47257233-.47442627zm.47257614 2.71099853h1.75527573v-1.762146H16.976799v1.762146z"/>
      <path fill="rgb(255,255,255)" fill-rule="evenodd" d="M16.50422287 31.64935303h2.7004242c.26099395 0 .47257232.21240234.47257232.47442627v2.7109375c0 .26202392-.21157837.47442627-.47257233.47442627h-2.70042419c-.26099396 0-.47257233-.21240235-.47257233-.47442627v-2.7109375c0-.26202393.21157837-.47442627.47257233-.47442627zm.47257614 2.71099853h1.75527573v-1.762146H16.976799v1.762146z"/>
      <path fill="rgb(255,255,255)" fill-rule="evenodd" d="M16.50422287 37.53027344h2.7004242c.26099395 0 .47257232.21240234.47257232.47442627v2.7109375c0 .26202392-.21157837.47442627-.47257233.47442627h-2.70042419c-.26099396 0-.47257233-.21240235-.47257233-.47442627v-2.7109375c0-.26202393.21157837-.47442627.47257233-.47442627zm.47257614 2.71099853h1.75527573v-1.762146H16.976799v1.762146z"/>
    </g>
  </g>
</svg>
