<svg xmlns="http://www.w3.org/2000/svg" xmlns:xlink="http://www.w3.org/1999/xlink" width="28" height="28" viewBox="0 0 28 28">
  <defs>
    <rect id="rect-1" width="28" height="28" x="0" y="0"/>
    <mask id="mask-2" maskContentUnits="userSpaceOnUse" maskUnits="userSpaceOnUse">
      <rect width="28" height="28" x="0" y="0" fill="black"/>
      <use fill="white" xlink:href="#rect-1"/>
    </mask>
  </defs>
  <g>
    <use fill="none" xlink:href="#rect-1"/>
    <g mask="url(#mask-2)">
      <path fill="rgb(88,77,246)" fill-rule="evenodd" d="M1.93379211 15.08581543c-.3885498-.25839233-.62182617-.69425964-.62129211-1.16090393 0-.67744446.40808105-1.2881775 1.03396606-1.54740906.62588501-.25924682 1.34629822-.11593628 1.82530213.36309815L4.375 12.94381714l.20321655-.20321655c.4790039-.47903443 1.19943238-.62234497 1.82530213-.36309815.625885.25923157 1.03396606.8699646 1.03398132 1.54740906.00048828.46665954-.2328186.90252685-.62141418 1.16090393l-2.19844056 1.4656372c-.14697265.0979767-.33843994.0979767-.4854126 0l-2.19844055-1.4656372zM4.375 14.00001526c-.11602783 0-.22731018-.0460968-.30935669-.12814331l-.51254272-.5125885c-.22877503-.22875977-.57284546-.29719544-.87174988-.17338562-.29891968.12380981-.4938202.41548156-.49385071.73901367-.00019836.17398071.08676147.33648682.23161316.43286133L4.375 15.66168213l1.95585632-1.3039093c.14486695-.096344.2318573-.25886536.23164368-.43286133-.00001526-.3235321-.19493103-.61520386-.49383545-.73901367-.29891968-.12380982-.64297485-.05537415-.87176514.17338562l-.51252746.5125885c-.08204651.0820465-.19332886.1281433-.30937195.1281433z"/>
      <path fill="rgb(88,77,246)" fill-rule="evenodd" d="M21 14.875h.875v.875H21v-.875z"/>
      <path fill="rgb(88,77,246)" fill-rule="evenodd" d="M22.75 14.875h.875v.875h-.875v-.875z"/>
      <path fill="rgb(88,77,246)" fill-rule="evenodd" d="M24.5 14.875h.875v.875H24.5v-.875z"/>
      <path fill="rgb(88,77,246)" fill-rule="evenodd" d="M24.7926178 10.5245514c.17533874-.0615387.37043762-.00559998.48651123.1395111l1.17480469 1.46858215c.433609.5434723.67016601 1.21788025.67106628 1.91313172V15.3125c-.0016632 1.44906616-1.17593384 2.6233368-2.625 2.625h-2.625c-1.4497528 0-2.625-1.1752472-2.625-2.625s1.1752472-2.625 2.625-2.625H24.5v-1.75c-.00006104-.18582153.11727905-.35140991.2926178-.4129486zM24.5 17.0625c.9660492-.00108337 1.74891663-.7839508 1.75-1.75v-1.26672363c-.00064087-.4965973-.1696167-.978302-.4793396-1.36647034L25.375 12.18470764V13.125c0 .24162292-.19587708.4375-.4375.4375H21.875c-.9664917 0-1.75.7835083-1.75 1.75 0 .96650696.7835083 1.75 1.75 1.75H24.5z"/>
      <path fill="rgb(88,77,246)" fill-rule="evenodd" d="M19.67486572 21.50071716C19.47790527 18.51141357 16.99578857 16.18745422 14 16.18745422c-2.99578857 0-5.47790527 2.32395935-5.67486572 5.31326294-1.40670777-1.06777954-2.48718262-2.5072937-3.1195984-4.15625l-.8177948.31117249c.77511598 2.0212555 2.16381837 3.74897766 3.97113038 4.94058227.36268616 2.83943177 2.77931213 4.96673584 5.64181519 4.96640015 2.86248779-.00035095 5.27859497-2.12825012 5.64059448-4.96777344 1.3784027-.90689087 2.51994324-2.13027954 3.32937622-3.56808471l-.76287842-.42842102c-.6365509 1.13076782-1.49868774 2.11865234-2.5329132 2.90237426zm-3.52937317.57351685c.9212494.60176086 1.55029297 1.55996704 1.7361145 2.64451599 1.45899964-1.99069214 1.17553712-4.76243591-.65623474-6.4165802-1.83175659-1.65414429-4.61795044-1.65441895-6.45004272-.00062561-1.83209229 1.65377808-2.11610413 4.42546081-.65748596 6.41644287.18327331-1.08557129.81297302-2.04470825 1.73616028-2.644516-.76815796-1.09046935-.59638977-2.58364867.39930725-3.47120666.99569702-.88757324 2.49871826-.88729858 3.4941101.00062561.9953766.88790894 1.16661072 2.3811493.3980713 3.471344zM10.9375 25.58651733V25.375c-.00048828-1.19786072.69781494-2.28591919 1.78701782-2.78442383.13409424-.06149292.22816468-.18643188.25021363-.33229065.02203369-.14585876-.03091431-.29301452-.14083863-.39138794-.5411377-.48356628-.72766113-1.2509613-.4688568-1.92897033.25878905-.67800904.9092102-1.12593079 1.63493346-1.12593079.72572327 0 1.37614441.44792175 1.63494873 1.12593079.25880432.67800903.07226563 1.44540405-.46887207 1.92897033-.10992431.09837342-.16287231.24552918-.14082336.39138794.02204895.14585877.11610412.27079773.25019836.33229065C16.36268616 23.0913086 17.06011963 24.17796326 17.0625 25.375v.21151733c-1.77780151 1.46795655-4.34719849 1.46795655-6.125 0z"/>
      <path fill="rgb(88,77,246)" fill-rule="evenodd" d="M24.0527649 11.83509827l-.8555298.18341064c-.47775268-2.1958313-1.7223358-4.1495819-3.51045226-5.51069641.00016784.01828003.00071716.03642273.00071716.0546875 0 3.14112854-2.54638672 5.6875-5.6875 5.6875-3.14112854 0-5.6875-2.54637146-5.6875-5.6875 0-.01879883.0007019-.0375061.0007019-.05625916-1.64494323 1.24440003-2.83348083 2.99667359-3.38137817 4.98519898l-.84344482-.23286438c.67277526-2.43966675 2.22387695-4.5444336 4.35493469-5.90942383.57009888-2.6123352 2.8828888-4.474823 5.55671692-4.474823 2.67381286 0 4.98660278 1.8624878 5.55670166 4.474823 2.29786682 1.48190308 3.91461181 3.81420899 4.49603271 6.48594666zm-6.36802674-4.36532593c.32424927.2271576.5934906.5240631.78793335.868927h.00027466c.79754638-2.00813293.15892029-4.30163574-1.56167603-5.60861206-1.72061157-1.30696106-4.10136413-1.30696106-5.8219757 0-1.72061158 1.30697632-2.35922242 3.60047913-1.5616913 5.60861206.19444276-.3448639.4636841-.6417694.78794862-.868927-.44421387-.73417664-.29055786-1.68214417.36282348-2.23840332.65338135-.55627442 1.6137085-.55673218 2.2676239-.00108338.65390015.5556488.80845643 1.50346375.36494446 2.23806763.27223206.18841553.50608826.42697144.6890564.70289612.1830597-.2759552.41700745-.5145111.68934631-.70289612-.44351196-.73460388-.28895569-1.68241882.36494446-2.23806763.6539154-.5556488 1.61424256-.55519104 2.2676239.00108338.65338135.55625915.80703736 1.50422668.36282349 2.23840332zM11.163208 7.9994049c-.57310486.23164367-.9826355.74700927-1.0788269 1.35762024.8134613 1.14030456 2.08328246 1.8697052 3.47811889 1.99789428V9.625c.0023346-.7166748-.43449402-1.3616333-1.1008606-1.62542725-.14509582-.05799865-.24824523-.18899536-.27059936-.34365844-.02235413-.15464783.03947449-.30949402.16221619-.40621949.29318237-.23051452.40802002-.62153625.28605651-.97398376-.1219635-.35244751-.45393371-.58885193-.82688903-.58885193-.37295533 0-.70492554.23640442-.82688904.58885193-.1219635.3524475-.00712586.74346924.28605652.97398376.12265014.09674073.18443298.25152588.16207885.40612793-.02235412.15460205-.1254425.28555298-.27046203.34358216zM14.4375 11.35493469V9.625c-.002182-.71655273.4346466-1.36135864 1.10090637-1.62509155.14511109-.05799866.2482605-.18899536.27061463-.34365845.02235412-.15464783-.0394745-.30949402-.16221619-.40621948-.29318237-.23051453-.40802002-.62153626-.28605652-.97398377.1219635-.3524475.45393372-.58885193.82688904-.58885193s.70491028.23640442.82688904.58885193c.1219635.35244751.00712585.74346924-.28605652.97398377-.12265015.09674072-.18443298.25152588-.16207886.40612793.02235413.15460205.1254425.28555298.27046204.34358215.57299804.23161316.9824829.74682617 1.07876587 1.3572998-.8134613 1.14028931-2.08328247 1.8697052-3.4781189 1.9978943z"/>
    </g>
  </g>
</svg>
