<svg xmlns="http://www.w3.org/2000/svg" xmlns:xlink="http://www.w3.org/1999/xlink" width="30" height="30" viewBox="0 0 30 30">
  <defs>
    <rect id="rect-1" width="30" height="30" x="0" y="0"/>
    <mask id="mask-2" maskContentUnits="userSpaceOnUse" maskUnits="userSpaceOnUse">
      <rect width="30" height="30" x="0" y="0" fill="black"/>
      <use fill="white" xlink:href="#rect-1"/>
    </mask>
  </defs>
  <g>
    <use fill="none" xlink:href="#rect-1"/>
    <g mask="url(#mask-2)">
      <path fill="rgb(255,255,255)" fill-rule="evenodd" d="M3.12498047 2.50001953c-.345 0-.62501953.28001953-.62501953.62501953S2.77998047 3.75 3.12498047 3.75 3.75 3.46998047 3.75 3.12498047s-.28001953-.62496094-.62501953-.62496094z"/>
      <path fill="rgb(255,255,255)" fill-rule="evenodd" d="M18.47824097 22.5H9.4373474C7.55426025 22.5 7.5 17.78677368 7.5 17.24998474c0-.53678894.05426025-5.24996948 1.93734741-5.24996948h9.04089356c.35647583 0 .64581299.2940216.64581299.65626526v1.39910888l2.87112426-1.94512939c.19888306-.13386536.45333863-.14697266.66384888-.03279114.20922852.11419678.3409729.33598328.3409729.57881165v9.18745422c0 .24282837-.13174438.46463013-.3409729.57881165-.0968628.05119323-.20147705.07745361-.3060913.07745361-.12527467 0-.24926759-.0367279-.35775758-.11024475l-2.87112426-1.94511414v1.39909363c0 .36225891-.28933716.65626526-.645813.65626526zm-.64575196-9.18745422h-8.3951416c-.14077759.15879821-.64581299 1.55789184-.64581299 3.93754577 0 2.37953186.5050354 3.77864075.76205445 3.96633911l8.27890014-.02755737v-1.97003174c0-.24282837.13174439-.46463012.3409729-.57881164.21051026-.11289978.46362305-.10108948.66384888.03279113l2.87112427 1.94511414V13.8821869l-2.87112427 1.94511414c-.19888306.13388061-.45333862.14698791-.66384888.0328064-.20922851-.11419679-.3409729-.33598328-.3409729-.57881165v-1.96875z"/>
      <path fill="rgb(255,255,255)" fill-rule="evenodd" d="M5.625 2.50001953c-.345 0-.62501953.28001953-.62501953.62501953S5.28 3.75 5.625 3.75s.62501953-.28001953.62501953-.62501953S5.97 2.50001953 5.625 2.50001953z"/>
      <path fill="rgb(255,255,255)" fill-rule="evenodd" d="M26.87503052 0H3.12496948C1.40127563 0 0 1.40249634 0 3.12498474v23.74998474C0 28.59750366 1.40127563 30 3.12496948 30h23.75C28.59872437 30 30 28.59750366 30 26.87501526V3.12498474C30 1.40249634 28.59872437 0 26.87503052 0zM1.24996948 4.99998474h27.49996948v-1.875c0-1.0337677-.84121704-1.875-1.875-1.875H3.12496948c-1.03378296 0-1.875.8412323-1.875 1.875v1.875zM28.75 26.87501526c0 1.0337677-.84121704 1.875-1.875 1.875H3.12496948c-1.03378296 0-1.875-.8412323-1.875-1.875v-20.625h27.49996948l.00006104 20.625z"/>
      <path fill="rgb(255,255,255)" fill-rule="evenodd" d="M8.12501953 2.50001953c-.345 0-.62501953.28001953-.62501953.62501953S7.78001953 3.75 8.12501953 3.75s.62501953-.28001953.62501953-.62501953-.28001953-.62496094-.62501953-.62496094z"/>
    </g>
  </g>
</svg>
