<svg xmlns="http://www.w3.org/2000/svg" xmlns:xlink="http://www.w3.org/1999/xlink" width="60" height="60" viewBox="0 0 60 60">
  <defs>
    <rect id="rect-2" width="26" height="26" x="17" y="17"/>
    <mask id="mask-3" maskContentUnits="userSpaceOnUse" maskUnits="userSpaceOnUse">
      <rect width="60" height="60" x="0" y="0" fill="black"/>
      <use fill="white" xlink:href="#rect-2"/>
    </mask>
  </defs>
  <g>
    <path fill="rgb(255,127,122)" fill-rule="evenodd" d="M30 0c16.55745073 0 30 13.44254927 30 30S46.55745073 60 30 60 0 46.55745073 0 30 13.44254927 0 30 0z"/>
    <g>
      <use fill="none" xlink:href="#rect-2"/>
      <g mask="url(#mask-3)">
        <path fill="rgb(255,255,255)" fill-rule="evenodd" d="M19.7083164 19.1666836c-.299 0-.54168359.24268359-.54168359.54168359s.2426836.54163281.5416836.54163281c.299 0 .54168359-.2426836.54168359-.5416836 0-.299-.2426836-.5416328-.5416836-.5416328z"/>
        <path fill="rgb(255,255,255)" fill-rule="evenodd" d="M32.41583252 37h-8.16597748C22.54899597 37 22.5 32.51119995 22.5 31.99996948 22.5 31.48873901 22.54899597 27 24.24985504 27h8.16597748c.3219719 0 .58330154.2800293.58330154.62503052v1.3324585l2.59328843-1.85247803c.17963409-.12750245.40946197-.13998413.59959411-.03121949.18898773.10873413.30797577.31997681.30797577.55123902V36.375c0 .2312622-.11898804.44250488-.30797577.55123901C36.10453033 36.97500611 36.01003265 37 35.9155426 37c-.11313629 0-.22512817-.03497314-.32312011-.10498047L32.99913406 35.042511V36.375c0 .34500122-.26132965.625-.58330154.625zm-.58324814-8.74996948h-7.58272552c-.12714005.15124511-.58330536 1.48370361-.58330536 3.75006103 0 2.26620484.45616531 3.59869385.68829345 3.77746582l7.47773743-.02624511v-1.8762207c0-.23129273.11899185-.44250489.30797196-.55126954.19013595-.10751343.4187622-.09625244.59960174.03125l2.5932846 1.85247803V28.7925415l-2.5932846 1.85250855c-.1796341.12750244-.40946579.13998413-.59960174.03121948-.1889801-.10873413-.30797196-.3199768-.30797196-.55123901v-1.875z"/>
        <path fill="rgb(255,255,255)" fill-rule="evenodd" d="M21.875 19.1666836c-.299 0-.5416836.24268359-.5416836.54168359S21.576 20.25 21.875 20.25c.299 0 .5416836-.2426836.5416836-.5416836 0-.299-.2426836-.5416328-.5416836-.5416328z"/>
        <path fill="rgb(255,255,255)" fill-rule="evenodd" d="M39.89585114 17H20.10414886C18.66772461 17 17.5 18.21551514 17.5 19.70831299v20.58331299C17.5 41.78448486 18.6677246 43 20.10414886 43h19.79164887C41.33227539 43 42.5 41.78448486 42.5 40.29168701V19.708313C42.5 18.21551514 41.3322754 17 39.89585114 17zm-21.35420228 4.33331299h22.91664887v-1.625c0-.89593506-.70101929-1.625-1.5625-1.625H20.10414886c-.86147308 0-1.5625.72906494-1.5625 1.625v1.625zM41.45834351 40.291687c0 .89593506-.7010193 1.625-1.5625 1.625H20.10414886c-.86147308 0-1.5625-.72906494-1.5625-1.625v-17.875h22.91664887l.00004578 17.875z"/>
        <path fill="rgb(255,255,255)" fill-rule="evenodd" d="M24.0416836 19.1666836c-.299 0-.5416836.24268359-.5416836.54168359S23.7426836 20.25 24.0416836 20.25c.299 0 .54168359-.2426836.54168359-.5416836 0-.299-.2426836-.5416328-.5416836-.5416328z"/>
      </g>
    </g>
  </g>
</svg>
